<?xml version="1.0" standalone="no"?>
<!DOCTYPE svg PUBLIC "-//W3C//DTD SVG 20010904//EN"
 "http://www.w3.org/TR/2001/REC-SVG-20010904/DTD/svg10.dtd">
<svg version="1.0" xmlns="http://www.w3.org/2000/svg"
 width="356.000000pt" height="318.000000pt" viewBox="0 0 356.000000 318.000000"
 preserveAspectRatio="xMidYMid meet">

<g transform="translate(0.000000,318.000000) scale(0.100000,-0.100000)"
fill="#000000" stroke="none">
<path d="M985 3043 l-460 -3 -213 -213 -212 -212 0 -685 0 -685 216 -217 215
-218 174 -1 c96 -1 180 -3 185 -4 6 -1 24 -3 40 -4 l30 -1 1 -77 c1 -43 4
-111 8 -151 l6 -73 218 -219 218 -219 632 0 632 1 223 226 222 226 0 370 c0
710 4 916 20 927 8 5 45 9 81 9 61 0 67 2 72 23 3 12 6 115 6 228 l1 207 -98
5 c-53 3 -256 6 -449 6 l-353 1 0 -103 c0 -56 -2 -162 -5 -234 l-4 -133 82 0
c45 0 88 -4 95 -8 10 -7 12 -123 13 -537 l1 -528 -78 -78 -79 -79 -378 0 -379
0 -80 77 c-68 67 -79 81 -76 108 l3 30 200 3 201 2 202 203 202 203 -2 199 -3
200 -267 3 -268 2 0 -68 0 -68 -75 -74 -75 -75 -63 0 -62 0 0 235 0 235 55 2
c30 2 70 5 88 8 l32 6 0 229 0 230 -455 0 -455 0 0 -229 0 -228 86 -6 c48 -3
89 -9 93 -12 8 -9 15 -409 7 -440 -6 -25 -8 -25 -104 -25 l-97 0 -62 61 -63
61 0 142 c-1 77 0 276 0 441 l1 300 87 82 87 82 402 1 402 0 86 -76 85 -76 0
-59 0 -59 268 0 269 0 -3 191 c-4 225 25 169 -232 437 l-175 182 -231 -2
c-127 -2 -438 -4 -691 -5z"/>
</g>
</svg>
