<?xml version="1.0" standalone="no"?>
<!DOCTYPE svg PUBLIC "-//W3C//DTD SVG 20010904//EN"
 "http://www.w3.org/TR/2001/REC-SVG-20010904/DTD/svg10.dtd">
<svg version="1.0" xmlns="http://www.w3.org/2000/svg"
 width="840.000000pt" height="850.000000pt" viewBox="0 0 840.000000 850.000000"
 preserveAspectRatio="xMidYMid meet">

<g transform="translate(0.000000,850.000000) scale(0.100000,-0.100000)"
fill="#000000" stroke="none">
<path d="M802 7497 l-492 -492 0 -1790 0 -1790 498 -498 497 -497 613 0 612 0
0 -475 0 -476 503 -499 502 -499 1500 -1 1500 0 508 501 507 501 0 1449 0
1449 270 0 270 0 0 835 0 835 -1110 0 -1110 0 0 477 0 478 -492 492 -493 493
-1795 0 -1795 0 -493 -493z m4380 -195 l418 -417 0 -558 0 -557 -560 0 -560 0
-2 418 -3 417 -1387 3 -1388 2 0 -1390 0 -1390 550 0 550 0 0 410 0 410 -272
2 -273 3 -3 558 -2 557 840 0 840 0 0 -970 0 -970 275 0 275 0 0 415 0 415
558 -2 557 -3 3 -555 2 -554 -417 -418 -418 -418 -417 0 -418 0 0 -415 0 -415
1103 2 1102 3 3 1943 2 1942 840 0 840 0 -2 -557 -3 -558 -272 -3 -273 -2 0
-1528 0 -1527 -424 -417 -424 -418 -1389 0 -1388 1 -422 419 -423 420 0 555 0
555 -692 0 -693 0 -417 417 -418 418 0 1670 -1 1670 423 417 423 417 1670 1
1670 0 417 -418z"/>
</g>
</svg>
