<?xml version="1.0" standalone="no"?>
<!DOCTYPE svg PUBLIC "-//W3C//DTD SVG 20010904//EN"
 "http://www.w3.org/TR/2001/REC-SVG-20010904/DTD/svg10.dtd">
<svg version="1.0" xmlns="http://www.w3.org/2000/svg"
 width="1048.000000pt" height="765.000000pt" viewBox="0 0 1048.000000 765.000000"
 preserveAspectRatio="xMidYMid meet">

<g transform="translate(0.000000,765.000000) scale(0.100000,-0.100000)"
fill="#000000" stroke="none">
<path d="M2726 4897 c-1375 -1405 -2498 -2558 -2497 -2563 6 -17 1916 -842
1922 -830 4 6 10 34 13 61 l6 50 -866 375 c-476 206 -868 378 -870 382 -3 5
3691 3789 4722 4838 l74 75 563 -562 562 -562 50 26 c28 14 52 27 55 30 4 4
-1221 1233 -1230 1233 -3 0 -1130 -1149 -2504 -2553z"/>
<path d="M6990 6335 c-203 -35 -414 -110 -680 -244 -185 -93 -295 -157 -284
-163 5 -3 23 -8 39 -12 17 -4 40 -17 53 -29 l23 -21 67 38 c104 58 337 170
440 210 209 82 395 121 537 113 155 -9 239 -56 292 -165 24 -48 28 -72 32
-161 2 -57 -2 -138 -9 -179 -16 -102 -81 -302 -142 -440 l-51 -113 30 -32 c17
-18 35 -40 40 -51 8 -15 18 0 55 85 172 394 229 694 169 896 -66 222 -294 322
-611 268z"/>
<path d="M6568 6028 c-27 -11 -48 -23 -48 -27 0 -4 171 -180 380 -391 307
-312 381 -382 389 -370 6 8 18 34 27 57 l17 43 -348 352 c-191 194 -352 354
-359 355 -6 1 -32 -8 -58 -19z"/>
<path d="M5777 5779 c-33 -124 -47 -149 -86 -149 -28 0 -40 -18 -41 -57 0 -21
83 -27 119 -9 41 21 58 57 91 184 11 42 12 43 43 37 18 -4 35 -10 39 -14 4 -3
-4 -53 -18 -111 -13 -58 -26 -115 -29 -127 -4 -19 1 -24 36 -33 23 -6 43 -10
45 -8 4 5 74 306 74 321 0 7 -43 22 -103 35 -56 13 -111 26 -123 29 -19 4 -23
-6 -47 -98z"/>
<path d="M4573 5863 c-24 -5 -23 -1 -48 -198 -9 -66 -18 -130 -20 -142 -5 -19
-1 -23 19 -23 49 0 76 17 76 49 0 32 7 36 72 46 40 6 45 4 58 -20 12 -22 18
-25 44 -20 71 14 73 6 -34 166 -105 156 -103 154 -167 142z m97 -194 c0 -6
-35 -19 -52 -19 -10 0 -10 62 -1 85 5 14 11 10 29 -21 13 -22 24 -42 24 -45z"/>
<path d="M4233 5753 l-32 -16 20 -50 c11 -27 18 -54 17 -59 -2 -6 -25 -18 -50
-28 l-46 -17 -22 58 c-13 33 -24 59 -25 59 -15 0 -75 -33 -75 -41 0 -10 109
-300 116 -308 4 -4 65 19 77 29 4 3 -4 35 -18 69 -15 35 -25 64 -23 66 9 7 99
37 102 34 1 -2 13 -32 26 -66 12 -35 25 -63 29 -62 3 0 22 8 42 17 l37 17 -61
158 c-33 86 -65 157 -71 156 -6 0 -25 -7 -43 -16z"/>
<path d="M6256 5742 c-28 -47 -135 -297 -129 -303 4 -4 61 -32 126 -63 l117
-55 16 31 c9 17 12 33 7 37 -4 4 -42 22 -83 41 -41 18 -76 34 -78 35 -7 6 23
55 34 55 7 0 41 -13 75 -30 l63 -30 13 23 c20 37 16 43 -57 75 -38 17 -70 35
-70 40 0 4 6 17 14 27 12 17 17 18 42 6 16 -8 53 -24 81 -37 l53 -24 16 31 c8
17 14 32 12 34 -3 3 -81 39 -195 91 -29 13 -54 20 -57 16z"/>
<path d="M5453 5556 l-100 -73 -174 -6 c-227 -7 -330 -26 -598 -109 -94 -30
-137 -48 -146 -63 -10 -16 -7 -68 17 -284 l30 -263 -43 -44 c-24 -24 -46 -41
-49 -36 -4 4 -47 111 -95 237 -49 127 -93 236 -98 243 -19 25 -56 10 -163 -64
-122 -85 -165 -120 -177 -140 -8 -13 -26 -213 -41 -439 -4 -49 -11 -153 -16
-230 -5 -77 -10 -146 -10 -153 0 -6 -78 73 -172 177 -95 104 -180 190 -188
193 -31 9 -47 -6 -143 -128 -69 -87 -98 -133 -99 -152 0 -15 39 -148 87 -297
48 -148 91 -283 96 -299 8 -27 0 -39 -100 -164 l-109 -135 51 -34 c28 -19 53
-30 57 -26 3 4 37 47 76 95 38 49 72 88 76 88 3 0 11 -15 17 -32 5 -18 78
-244 162 -503 83 -258 158 -492 166 -520 8 -27 22 -56 31 -63 27 -21 208 -15
388 14 l165 26 24 -26 c23 -25 30 -26 120 -26 69 0 118 6 170 21 l73 21 21
-21 c15 -15 33 -21 69 -21 46 0 52 4 152 91 58 50 177 158 266 240 l161 149 6
368 c4 202 10 685 14 1074 l6 707 -28 7 c-43 11 -367 -3 -495 -21 -63 -9 -121
-22 -129 -30 -12 -12 -7 -111 33 -697 51 -739 77 -1117 101 -1468 8 -124 18
-249 21 -278 l6 -53 -58 3 -58 3 -112 1015 c-62 558 -131 1184 -154 1390 -22
206 -42 389 -45 405 l-5 31 97 31 c245 80 398 106 613 106 142 0 434 -25 449
-39 4 -4 -24 -598 -34 -739 -3 -33 -14 -233 -25 -445 -20 -394 -25 -487 -36
-670 -3 -58 -11 -208 -17 -333 l-12 -228 122 123 c172 173 212 220 218 259 2
19 43 444 90 944 47 501 88 920 91 933 5 23 6 23 107 -31 149 -79 216 -124
222 -150 12 -57 63 -509 90 -802 8 -93 19 -173 24 -178 5 -5 58 57 123 145
141 188 320 449 313 457 -10 10 -117 -105 -347 -373 l-26 -31 -5 35 c-4 19
-16 127 -27 240 -12 113 -32 288 -45 390 -28 212 -15 189 -159 274 -155 91
-296 158 -321 152 -19 -5 -37 -54 -145 -398 -67 -216 -131 -415 -141 -443
l-19 -50 5 95 c10 204 25 478 30 545 17 256 18 330 3 342 -8 7 -59 20 -113 28
-55 9 -101 18 -103 19 -1 2 9 11 23 20 21 14 24 20 14 37 -6 12 -11 41 -11 65
0 24 -1 44 -2 44 -2 0 -48 -33 -103 -74z m-1318 -528 c2 -13 45 -288 95 -613
103 -682 297 -1937 304 -1977 5 -27 4 -28 -43 -28 -42 0 -50 3 -54 23 -3 12
-26 130 -52 262 -44 230 -157 814 -230 1186 -19 97 -35 179 -35 183 0 3 -9 10
-20 16 -33 17 -58 -3 -64 -53 -5 -42 -7 -70 -26 -382 -17 -282 -30 -640 -30
-815 0 -91 -3 -222 -7 -292 l-6 -128 -58 0 -58 0 -26 83 c-43 135 -204 632
-251 777 -24 74 -102 317 -173 540 l-130 404 56 73 c49 64 73 86 73 68 0 -15
362 -1290 371 -1306 11 -21 49 -25 67 -7 8 8 12 62 12 177 0 381 24 946 61
1426 17 224 23 271 37 281 9 7 51 37 92 68 41 30 78 55 82 56 4 0 10 -10 13
-22z m1060 -168 c-3 -5 -24 -10 -46 -10 -24 0 -38 4 -34 10 3 6 24 10 46 10
24 0 38 -4 34 -10z m102 -5 c8 -9 13 -19 9 -22 -3 -4 -12 2 -20 12 -9 13 -20
16 -39 11 -16 -4 -27 -2 -27 4 0 16 60 12 77 -5z m38 5 c3 -5 1 -18 -4 -27 -9
-16 -10 -16 -11 4 0 12 -6 24 -12 26 -8 3 -7 6 4 6 9 1 20 -3 23 -9z m-295
-16 c0 -12 -11 -15 -52 -13 -29 1 -69 -1 -88 -5 -32 -6 -33 -5 -10 5 21 9 87
23 138 28 6 0 12 -6 12 -15z m-80 -24 c0 -11 -68 -25 -77 -16 -4 3 5 6 20 6
14 0 29 5 32 10 8 13 25 13 25 0z m-446 -355 c8 -71 13 -131 12 -132 -2 -2
-22 46 -46 106 l-43 110 29 25 c16 13 30 23 31 22 1 0 8 -60 17 -131z"/>
<path d="M3730 5508 c-63 -39 -117 -73 -119 -74 -3 -3 27 -51 156 -256 l23
-37 120 75 120 75 -17 27 c-9 15 -18 29 -20 31 -1 2 -39 -19 -83 -47 l-80 -51
-15 22 c-8 12 -15 26 -15 32 0 6 29 28 65 49 36 21 65 41 65 44 0 4 -9 18 -19
31 l-19 24 -67 -42 c-63 -40 -68 -41 -81 -24 -22 29 -17 36 49 75 34 21 68 42
75 47 11 6 10 14 -5 39 l-19 31 -114 -71z"/>
<path d="M6572 5409 c-51 -78 -92 -142 -90 -143 53 -38 71 -47 77 -39 50 72
73 103 79 103 10 0 82 -49 82 -56 0 -3 -16 -28 -35 -57 -19 -28 -35 -55 -35
-59 0 -8 70 -52 74 -47 21 27 177 260 181 270 4 12 -62 67 -69 57 -2 -2 -17
-24 -35 -50 -18 -27 -34 -48 -37 -48 -9 0 -84 53 -84 59 0 3 14 26 30 51 16
25 30 48 30 52 0 6 -63 48 -71 48 -2 0 -46 -64 -97 -141z"/>
<path d="M3326 5191 l-88 -89 66 -71 c69 -76 99 -138 78 -164 -9 -10 0 -25 41
-65 l53 -52 29 30 29 30 -22 23 c-12 13 -22 28 -22 33 0 5 31 41 70 79 l70 69
28 -27 28 -27 29 30 29 31 -51 51 c-45 45 -54 50 -68 38 -14 -12 -27 -2 -108
78 -51 51 -95 92 -97 92 -3 0 -45 -40 -94 -89z m154 -96 l64 -65 -39 -40 -39
-40 -17 35 c-10 20 -36 57 -58 83 l-40 49 22 21 c12 12 26 22 32 22 6 0 40
-29 75 -65z"/>
<path d="M6955 5140 l-120 -120 32 -32 32 -32 98 24 c54 14 105 27 113 29 8 2
-16 -29 -54 -69 l-69 -71 31 -32 32 -32 122 123 123 122 -32 32 -32 32 -98
-24 c-54 -14 -105 -27 -113 -29 -8 -2 14 27 48 63 34 37 62 70 62 74 0 5 -13
20 -28 35 l-28 27 -119 -120z"/>
<path d="M7461 5125 l-23 -55 1335 -1342 c735 -739 1336 -1347 1337 -1352 1
-5 -41 -27 -92 -49 -219 -93 -2877 -1228 -4078 -1742 -382 -164 -702 -297
-710 -297 -8 1 -419 177 -913 392 -494 214 -902 390 -907 390 -4 0 -39 -14
-77 -31 l-68 -31 30 -14 c17 -8 459 -201 983 -428 l953 -414 182 78 c222 95
2071 885 3242 1385 473 202 1040 445 1261 539 220 94 401 176 401 181 1 11
-2814 2845 -2826 2845 -4 0 -18 -25 -30 -55z"/>
<path d="M3059 4867 c-19 -12 -58 -58 -88 -101 -45 -65 -51 -80 -40 -90 8 -7
71 -52 140 -98 l127 -86 19 27 c11 14 22 31 26 38 4 7 -11 22 -38 40 -25 15
-45 31 -45 35 0 4 14 29 30 55 54 85 33 160 -53 192 -38 15 -39 14 -78 -12z
m71 -92 c10 -12 10 -21 0 -45 -20 -47 -34 -54 -70 -34 -16 10 -30 21 -30 25 0
4 12 21 26 38 28 34 55 39 74 16z"/>
<path d="M7281 4784 c-93 -62 -139 -99 -135 -107 4 -7 16 -24 26 -39 l19 -28
32 24 c18 13 44 31 59 40 l26 17 31 -45 32 -45 -56 -37 c-30 -20 -55 -42 -55
-48 0 -6 11 -24 23 -40 l24 -29 136 93 c75 51 137 95 137 97 0 9 -41 73 -47
73 -3 0 -27 -16 -53 -35 l-48 -35 -30 47 -31 47 50 33 c27 19 49 36 49 39 0 3
-10 20 -23 39 l-23 34 -143 -95z"/>
<path d="M6933 4526 c-493 -750 -1281 -1614 -2088 -2289 -247 -206 -225 -180
-187 -218 18 -18 32 -36 32 -41 0 -19 26 -4 98 54 593 481 1217 1103 1710
1705 188 229 472 617 572 781 l32 52 -23 38 c-12 20 -25 49 -28 63 -5 24 -18
8 -118 -145z"/>
<path d="M6193 4578 c-8 -10 -155 -1076 -153 -1111 0 -7 65 64 130 144 19 24
68 82 109 129 41 47 81 92 88 101 11 13 10 39 -7 155 -25 170 -89 553 -96 577
-6 20 -56 24 -71 5z m34 -440 c-3 -8 -6 -5 -6 6 -1 11 2 17 5 13 3 -3 4 -12 1
-19z m50 -220 c-3 -8 -6 -5 -6 6 -1 11 2 17 5 13 3 -3 4 -12 1 -19z m13 -132
c-17 -17 -39 -15 -32 2 4 10 7 12 10 4 2 -7 8 -10 12 -7 5 3 7 13 4 23 -5 14
-4 15 5 2 6 -9 7 -18 1 -24z"/>
<path d="M7082 4455 l-22 -35 66 -80 66 -81 -269 -922 -269 -922 -47 -3 c-26
-2 -47 -1 -47 1 0 3 91 362 202 799 110 436 203 805 206 821 5 31 -12 57 -38
57 -38 0 -260 -263 -410 -487 l-89 -133 -6 38 c-4 20 -8 41 -9 47 -1 5 -21
-15 -44 -43 -26 -33 -39 -59 -36 -70 4 -12 3 -13 -3 -5 -8 12 -149 -132 -303
-310 l-45 -52 -44 -333 -45 -332 -48 0 c-32 0 -48 4 -48 13 0 15 37 405 45
468 l5 46 -162 -159 -161 -160 -5 -104 -5 -104 -58 0 -58 0 4 46 c3 25 1 44
-4 42 -15 -5 -121 -108 -121 -117 0 -5 15 -20 34 -35 32 -24 42 -26 142 -26
95 0 110 2 130 21 l22 20 70 -20 c97 -29 253 -30 282 -1 11 11 20 27 20 35 0
8 1 15 3 15 2 0 117 -16 256 -35 253 -35 425 -44 461 -25 11 6 26 34 35 63 9
28 135 460 281 959 226 775 263 910 254 933 -10 26 -149 203 -160 204 -3 1
-15 -15 -28 -34z m-747 -1095 c-3 -5 -12 -10 -18 -10 -7 0 -6 4 3 10 19 12 23
12 15 0z"/>
<path d="M2855 4441 c-54 -13 -76 -32 -101 -84 -16 -35 -24 -70 -24 -106 0
-50 3 -57 43 -96 67 -67 181 -85 246 -38 70 51 94 185 45 251 -42 54 -142 89
-209 73z m125 -121 c36 -26 45 -53 30 -90 -21 -50 -101 -58 -165 -16 -50 33
-55 90 -11 122 28 21 107 12 146 -16z"/>
<path d="M7355 4329 c21 -65 24 -69 58 -69 31 0 34 -3 50 -52 l17 -53 -26 -23
-26 -22 17 -45 17 -44 122 101 c174 145 160 128 145 177 l-12 41 -86 0 c-47 0
-130 3 -185 7 l-98 6 7 -24z m229 -99 c-21 -16 -42 -30 -46 -30 -3 0 -11 14
-17 30 l-10 30 56 0 57 0 -40 -30z"/>
<path d="M3084 3224 c-13 -5 -425 -448 -436 -469 -16 -27 9 -55 106 -125 55
-38 104 -70 108 -70 33 0 61 46 190 304 152 306 155 316 99 349 -29 17 -46 20
-67 11z"/>
<path d="M2576 2462 c-185 -322 -320 -654 -361 -891 -19 -105 -19 -280 -1
-348 42 -158 144 -257 302 -294 78 -18 246 -13 359 10 194 40 435 132 690 265
161 84 365 203 365 214 0 4 -49 6 -109 5 -106 -3 -112 -4 -172 -39 -100 -59
-417 -210 -520 -248 -381 -140 -653 -133 -759 21 -137 199 -31 634 297 1221
l75 134 -23 16 c-12 10 -35 25 -49 34 l-27 18 -67 -118z"/>
<path d="M3690 1750 l0 -230 40 0 40 0 1 128 1 127 31 -127 c30 -125 31 -128
58 -128 27 0 28 3 57 123 l30 122 1 -122 1 -123 40 0 40 0 0 231 0 230 -52 -3
-53 -3 -29 -132 c-17 -73 -33 -133 -36 -133 -3 0 -16 51 -29 113 -35 163 -31
157 -91 157 l-50 0 0 -230z"/>
<path d="M4390 1750 l0 -230 85 0 c93 0 147 16 164 48 14 27 14 128 0 155 -7
12 -18 26 -26 30 -12 8 -12 12 2 27 23 26 31 102 15 141 -18 43 -62 59 -160
59 l-80 0 0 -230z m154 124 c35 -34 12 -74 -41 -74 -32 0 -33 1 -33 45 0 43 1
45 29 45 16 0 37 -7 45 -16z m14 -176 c7 -7 12 -24 12 -38 0 -36 -17 -50 -62
-50 l-38 0 0 50 0 50 38 0 c21 0 43 -5 50 -12z"/>
<path d="M5007 1973 c-4 -3 -7 -107 -7 -230 l0 -223 40 0 40 0 0 97 c0 53 4
93 8 88 4 -6 26 -49 48 -97 l39 -87 48 -1 c26 0 47 3 47 6 0 3 -28 59 -61 125
l-61 119 56 96 c31 53 56 100 56 105 0 14 -76 11 -87 -3 -6 -7 -28 -46 -49
-86 l-39 -73 -3 86 -3 85 -33 0 c-18 0 -36 -3 -39 -7z"/>
<path d="M5367 1974 c-4 -4 -7 -108 -7 -231 l0 -223 125 0 125 0 0 50 0 50
-85 0 -85 0 0 45 0 45 75 0 75 0 0 45 0 45 -75 0 -75 0 0 40 0 39 83 3 82 3 0
45 0 45 -116 3 c-63 1 -118 -1 -122 -4z"/>
<path d="M5760 1853 c-1 -70 -5 -148 -9 -172 -9 -43 -35 -76 -52 -65 -5 3 -9
-18 -9 -45 l0 -51 35 0 c44 0 79 32 94 86 6 22 11 92 11 157 l0 117 40 0 40 0
0 -180 0 -180 40 0 40 0 -2 228 -3 227 -112 3 -113 3 0 -128z"/>
<path d="M6155 1968 c-2 -7 -6 -71 -8 -143 -5 -144 -20 -205 -49 -205 -17 0
-18 -8 -16 -97 l3 -98 38 -3 37 -3 0 50 0 51 90 0 90 0 0 -51 0 -50 38 3 37 3
3 98 c3 91 2 97 -17 97 -20 0 -21 7 -23 178 l-3 177 -108 3 c-81 2 -108 -1
-112 -10z m145 -218 l0 -130 -48 0 -49 0 13 63 c8 34 14 92 14 130 l0 67 35 0
35 0 0 -130z"/>
<path d="M6520 1749 l0 -231 101 4 c92 3 103 5 120 26 32 40 43 100 30 161
-16 79 -40 101 -113 101 l-58 0 0 85 0 85 -40 0 -40 0 0 -231z m159 -43 c7 -8
11 -30 9 -48 -3 -31 -5 -33 -45 -36 l-43 -3 0 50 0 51 34 0 c18 0 39 -6 45
-14z"/>
<path d="M6790 1750 l0 -230 40 0 40 0 0 230 0 230 -40 0 -40 0 0 -230z"/>
<path d="M7000 1750 l0 -230 200 0 200 0 -2 228 -3 227 -37 3 -38 3 0 -180 0
-181 -45 0 -45 0 0 180 0 180 -35 0 -35 0 0 -180 0 -180 -45 0 -45 0 0 180 0
180 -35 0 -35 0 0 -230z"/>
<path d="M7595 1968 c-7 -23 -105 -430 -105 -439 0 -5 18 -9 40 -9 35 0 40 3
46 28 14 65 13 63 62 60 46 -3 47 -3 56 -45 9 -43 9 -43 53 -43 42 0 43 1 36
28 -3 15 -29 117 -57 227 l-51 200 -38 3 c-24 2 -39 -1 -42 -10z m60 -217 l13
-61 -30 0 c-29 0 -30 2 -24 33 4 17 10 47 13 65 7 43 13 36 28 -37z"/>
<path d="M2700 1684 l0 -165 42 3 42 3 31 77 c17 42 34 80 38 84 4 4 7 -32 7
-79 l0 -87 35 0 35 0 0 165 0 165 -38 0 -39 0 -36 -87 -36 -88 -1 88 0 87 -40
0 -40 0 0 -166z"/>
<path d="M3050 1685 l0 -165 35 0 35 0 1 83 1 82 22 -80 c20 -72 25 -80 48
-83 24 -3 27 1 43 70 27 110 34 114 35 16 l0 -88 35 0 35 0 0 165 0 165 -48 0
-48 0 -24 -99 c-14 -55 -26 -98 -28 -96 -2 2 -10 29 -18 62 -38 147 -30 133
-79 133 l-45 0 0 -165z"/>
<path d="M3470 1575 l0 -55 40 0 40 0 0 55 0 55 -40 0 -40 0 0 -55z"/>
<path d="M4170 1575 l0 -55 40 0 40 0 0 55 0 55 -40 0 -40 0 0 -55z"/>
<path d="M4780 1575 l0 -55 40 0 40 0 0 55 0 55 -40 0 -40 0 0 -55z"/>
<path d="M2366 1512 c-9 -15 -10 -102 -1 -111 6 -5 146 -67 312 -139 l302
-131 75 25 c42 14 76 29 76 33 0 6 -738 331 -752 331 -4 0 -9 -3 -12 -8z"/>
<path d="M4740 1065 l0 -225 40 0 40 0 0 75 0 75 39 0 c21 0 52 5 69 11 60 21
92 142 58 223 -23 55 -48 66 -153 66 l-93 0 0 -225z m164 119 c18 -18 20 -47
6 -75 -8 -14 -21 -19 -50 -19 l-40 0 0 55 0 55 34 0 c19 0 42 -7 50 -16z"/>
<path d="M5171 1253 c-6 -21 -29 -114 -51 -208 -22 -93 -43 -178 -46 -188 -5
-16 0 -18 37 -15 41 3 44 5 52 41 9 37 10 37 58 37 45 0 49 -2 55 -27 11 -51
13 -53 54 -53 22 0 40 3 40 8 -1 4 -25 104 -54 222 l-54 215 -40 3 c-40 3 -41
2 -51 -35z m73 -205 c7 -37 6 -38 -24 -38 -25 0 -30 4 -26 18 2 9 8 33 11 52
14 68 21 62 39 -32z"/>
<path d="M5460 1065 l0 -225 40 0 40 0 0 95 0 95 50 0 50 0 0 -95 0 -95 40 0
40 0 0 225 0 225 -40 0 -40 0 0 -80 0 -80 -50 0 -50 0 0 80 0 80 -40 0 -40 0
0 -225z"/>
</g>
</svg>
