<?xml version="1.0" standalone="no"?>
<!DOCTYPE svg PUBLIC "-//W3C//DTD SVG 20010904//EN"
 "http://www.w3.org/TR/2001/REC-SVG-20010904/DTD/svg10.dtd">
<svg version="1.0" xmlns="http://www.w3.org/2000/svg"
 width="224.000000pt" height="224.000000pt" viewBox="0 0 224.000000 224.000000"
 preserveAspectRatio="xMidYMid meet">

<g transform="translate(0.000000,224.000000) scale(0.100000,-0.100000)"
fill="#000000" stroke="none">
<path d="M950 2079 c-164 -25 -343 -113 -493 -242 l-58 -50 29 -14 c18 -9 40
-34 55 -63 26 -51 71 -197 82 -267 l7 -43 117 0 c145 0 149 3 175 135 19 102
73 335 86 380 5 17 19 61 31 98 11 38 19 69 18 71 -2 1 -24 -1 -49 -5z"/>
<path d="M1012 1998 c-31 -95 -39 -126 -95 -379 l-33 -147 38 -11 c21 -7 45
-23 54 -36 16 -24 20 -25 129 -25 l113 0 22 89 c21 87 21 91 6 197 -20 130
-62 342 -76 378 -9 24 -14 26 -68 26 l-59 0 -31 -92z"/>
<path d="M1202 2078 c20 -54 62 -266 74 -370 l7 -58 22 48 c38 83 100 102 142
44 26 -36 59 -127 87 -242 l23 -95 121 -3 c114 -2 121 -1 127 18 3 11 10 20
14 20 4 0 13 33 20 73 7 39 19 97 27 127 8 30 14 62 14 72 0 25 -134 157 -216
211 -93 61 -180 101 -285 131 -114 32 -183 42 -177 24z"/>
<path d="M377 1722 c-53 -58 -72 -217 -31 -258 10 -11 34 -37 52 -59 22 -27
32 -34 32 -22 0 14 10 17 56 17 48 0 55 2 50 18 -2 9 -8 33 -11 52 -14 70 -48
176 -73 223 -27 51 -48 59 -75 29z"/>
<path d="M1350 1708 c-49 -80 -58 -155 -34 -280 l6 -28 99 0 c60 0 99 4 99 10
0 18 -51 201 -67 244 -37 94 -69 110 -103 54z"/>
<path d="M1897 1614 c-32 -138 -32 -138 3 -151 30 -11 35 -10 71 19 l38 31
-24 46 c-13 25 -35 63 -48 85 l-24 38 -16 -68z"/>
<path d="M255 1577 c-17 -33 -17 -39 -5 -47 18 -11 33 21 28 60 -4 24 -5 23
-23 -13z"/>
<path d="M187 1417 c-24 -75 -27 -96 -26 -223 1 -91 4 -127 9 -104 4 19 17 78
28 130 12 52 30 134 40 182 17 75 18 87 5 92 -26 10 -29 7 -56 -77z"/>
<path d="M1267 1446 c-5 -21 -6 -41 -3 -44 12 -11 17 7 14 44 l-3 39 -8 -39z"/>
<path d="M1981 1446 l-23 -25 21 -30 c12 -16 39 -74 60 -128 21 -54 41 -105
45 -113 9 -23 -4 129 -15 175 -40 155 -47 165 -88 121z"/>
<path d="M288 1455 c-3 -6 -9 -28 -13 -50 -4 -22 -16 -78 -26 -125 -31 -137
-31 -138 7 -65 20 39 42 77 49 85 10 12 11 30 1 90 -6 41 -14 70 -18 65z"/>
<path d="M876 1415 c-4 -12 3 -15 37 -15 39 1 41 2 23 15 -25 19 -52 19 -60 0z"/>
<path d="M1856 1414 c-5 -12 0 -15 21 -12 14 2 28 9 31 16 6 18 -45 15 -52 -4z"/>
<path d="M340 1399 c0 -33 13 -50 29 -39 11 6 10 13 -8 35 l-21 28 0 -24z"/>
<path d="M1947 1257 c-21 -99 -21 -97 -3 -97 8 0 43 -26 77 -57 36 -33 59 -49
55 -38 -4 11 -28 75 -53 143 -25 67 -48 124 -52 126 -4 3 -15 -32 -24 -77z"/>
<path d="M368 1320 c-9 -6 -15 -18 -14 -28 2 -9 7 -48 11 -87 l8 -70 18 70
c29 115 24 142 -23 115z"/>
<path d="M546 1298 c-12 -19 -40 -127 -72 -277 -3 -13 -14 -25 -24 -28 -26 -7
-26 -23 0 -23 27 0 37 22 65 153 27 127 40 167 54 167 12 0 17 -21 41 -190 11
-80 25 -155 30 -167 13 -32 37 -29 55 7 l16 30 491 0 c332 0 489 3 482 10 -7
7 -179 9 -499 8 l-490 -3 -13 -27 c-7 -16 -16 -28 -20 -28 -4 0 -18 70 -30
156 -32 219 -51 266 -86 212z"/>
<path d="M305 1230 c-46 -86 -105 -215 -105 -231 0 -5 32 -9 70 -9 56 0 72 3
77 16 3 9 0 71 -8 138 l-15 121 -19 -35z"/>
<path d="M1110 1191 c0 -5 -17 -13 -37 -18 -29 -6 -42 -17 -55 -43 -15 -29
-16 -37 -4 -55 7 -11 25 -21 40 -23 14 -2 26 -10 26 -18 0 -9 11 -14 30 -14
20 0 30 5 30 15 0 10 10 15 28 15 30 0 66 25 75 53 11 30 -9 65 -42 72 -17 4
-31 11 -31 16 0 5 -13 9 -30 9 -16 0 -30 -4 -30 -9z m-14 -97 c-3 -8 -10 -14
-16 -14 -20 0 -22 31 -4 52 l19 20 3 -22 c2 -12 1 -28 -2 -36z m94 26 c0 -19
-27 -47 -36 -37 -3 3 -3 19 1 36 7 32 35 34 35 1z"/>
<path d="M750 1113 c-8 -43 -14 -80 -14 -83 -1 -3 9 -6 21 -8 18 -3 24 4 32
35 6 21 11 50 11 65 0 15 4 29 10 33 5 3 10 -22 12 -62 3 -65 4 -68 29 -71 22
-3 28 4 51 60 32 79 52 89 32 16 -19 -72 -18 -78 11 -78 19 0 26 7 31 28 3 15
10 43 15 62 18 71 14 80 -35 80 -43 0 -45 -1 -63 -45 -10 -25 -21 -45 -25 -45
-5 0 -8 20 -8 45 l0 45 -49 0 -48 0 -13 -77z"/>
<path d="M1267 1183 c-15 -15 -5 -32 21 -35 15 -2 26 -8 25 -14 -1 -6 -5 -34
-9 -63 l-7 -53 29 4 c27 3 30 7 39 63 10 57 12 60 42 63 21 2 33 10 36 23 5
18 -1 19 -82 19 -48 0 -91 -3 -94 -7z"/>
<path d="M1456 1125 c-24 -96 -23 -105 19 -105 31 0 38 5 66 50 17 28 33 50
36 50 5 0 -4 -61 -14 -86 -4 -10 3 -14 26 -14 34 0 32 -3 55 108 l13 62 -39 0
c-34 0 -41 -4 -69 -47 l-31 -48 6 48 c6 46 5 47 -23 47 -27 0 -30 -4 -45 -65z"/>
<path d="M1916 1118 c-3 -7 -7 -27 -10 -44 -3 -18 -8 -43 -12 -58 l-6 -26 98
0 99 0 -71 70 c-71 70 -91 81 -98 58z"/>
<path d="M1720 975 c0 -16 31 -19 64 -6 18 7 18 8 -5 14 -39 11 -59 8 -59 -8z"/>
<path d="M200 952 c0 -4 24 -32 54 -61 58 -57 59 -57 71 23 l7 46 -66 0 c-36
0 -66 -4 -66 -8z"/>
<path d="M1870 903 c-7 -32 -14 -61 -16 -65 -5 -8 63 -49 118 -72 l37 -16 16
29 c8 17 22 56 30 88 8 31 18 65 21 75 5 16 -3 18 -95 18 l-100 0 -11 -57z"/>
<path d="M232 818 c11 -35 22 -64 23 -66 6 -7 76 11 73 18 -2 4 -29 31 -60 59
l-57 52 21 -63z"/>
<path d="M363 803 c9 -2 23 -2 30 0 6 3 -1 5 -18 5 -16 0 -22 -2 -12 -5z"/>
<path d="M501 790 c-13 -11 -29 -20 -37 -20 -18 0 -18 -14 1 -30 18 -15 39 -1
61 42 17 33 9 35 -25 8z"/>
<path d="M587 728 c-41 -119 -95 -218 -136 -245 -18 -13 -37 -20 -42 -17 -24
14 -4 -13 34 -48 64 -60 154 -122 233 -162 58 -29 147 -66 159 -66 2 0 -9 30
-24 68 -27 66 -68 221 -114 437 -23 108 -25 110 -53 113 -28 3 -30 0 -57 -80z"/>
<path d="M760 804 c0 -7 62 -113 98 -166 46 -70 95 -41 163 95 l39 77 -150 0
c-82 0 -150 -3 -150 -6z"/>
<path d="M1126 788 c-3 -13 -22 -101 -42 -196 -29 -135 -35 -175 -25 -185 18
-18 130 -14 166 5 17 9 45 31 64 49 28 26 32 35 23 48 -28 39 -68 123 -97 206
-29 79 -36 90 -59 93 -20 3 -26 -2 -30 -20z"/>
<path d="M1220 800 c0 -5 4 -19 9 -32 5 -13 19 -48 31 -78 27 -68 72 -160 81
-166 4 -2 32 35 63 83 l56 87 -25 13 c-13 8 -29 22 -35 33 -6 11 -21 20 -33
20 -12 0 -40 11 -62 25 -41 25 -85 33 -85 15z"/>
<path d="M1338 803 c6 -2 18 -2 25 0 6 3 1 5 -13 5 -14 0 -19 -2 -12 -5z"/>
<path d="M1418 803 c6 -2 18 -2 25 0 6 3 1 5 -13 5 -14 0 -19 -2 -12 -5z"/>
<path d="M1472 783 c-34 -20 -40 -28 -31 -39 19 -23 34 -16 58 26 12 22 21 40
19 40 -2 -1 -22 -12 -46 -27z"/>
<path d="M1590 798 c0 -24 -78 -214 -104 -257 -33 -51 -62 -71 -106 -71 -28 0
-43 -8 -73 -39 -51 -53 -110 -75 -184 -69 -32 3 -65 8 -73 12 -13 5 -21 -9
-38 -66 -12 -40 -33 -89 -47 -110 l-25 -36 87 -7 c201 -17 391 24 566 122 43
24 85 50 95 58 9 8 27 22 39 32 l22 18 -34 150 c-19 83 -41 177 -48 210 -13
57 -15 60 -45 63 -22 2 -32 -1 -32 -10z"/>
<path d="M1730 805 c0 -3 15 -35 33 -72 39 -81 85 -133 119 -133 24 0 69 40
99 89 15 24 15 25 -79 73 -65 33 -107 48 -134 48 -21 0 -38 -2 -38 -5z"/>
<path d="M710 797 c0 -17 83 -374 105 -446 59 -199 107 -211 164 -42 27 84 27
94 -8 124 -16 13 -49 50 -74 83 -24 32 -54 68 -66 78 -28 26 -59 76 -93 151
-15 33 -28 57 -28 52z"/>
<path d="M1052 715 c-37 -75 -96 -145 -123 -145 -11 0 -19 -4 -19 -9 0 -16 98
-126 105 -119 2 2 13 48 24 103 12 55 27 129 35 165 8 36 14 66 12 67 -1 1
-16 -27 -34 -62z"/>
<path d="M1485 673 c-32 -54 -70 -113 -83 -131 -29 -38 -23 -51 14 -32 15 9
38 41 59 85 33 69 76 175 70 175 -1 0 -29 -44 -60 -97z"/>
<path d="M1700 769 c0 -7 23 -117 57 -274 10 -44 22 -80 27 -79 6 0 39 36 75
79 54 64 61 77 42 72 -56 -14 -110 32 -169 148 -17 33 -31 57 -32 54z"/>
<path d="M330 734 c-63 -26 -63 -26 -20 -121 32 -69 69 -113 98 -113 36 0 80
66 131 198 27 68 26 74 -5 35 -34 -44 -75 -45 -106 -3 -25 35 -26 35 -98 4z"/>
</g>
</svg>
