<?xml version="1.0" standalone="no"?>
<!DOCTYPE svg PUBLIC "-//W3C//DTD SVG 20010904//EN"
 "http://www.w3.org/TR/2001/REC-SVG-20010904/DTD/svg10.dtd">
<svg version="1.0" xmlns="http://www.w3.org/2000/svg"
 width="1200.000000pt" height="1200.000000pt" viewBox="0 0 1200.000000 1200.000000"
 preserveAspectRatio="xMidYMid meet">

<g transform="translate(0.000000,1200.000000) scale(0.100000,-0.100000)"
fill="#000000" stroke="none">
<path d="M7456 9658 c-3 -7 -80 -388 -172 -845 l-167 -833 109 -112 c334 -344
541 -711 655 -1162 216 -856 -36 -1763 -665 -2391 -191 -190 -406 -348 -633
-463 -131 -66 -281 -128 -289 -119 -3 3 82 446 190 984 107 538 198 1014 202
1058 17 214 -59 382 -201 447 -41 18 -72 23 -170 26 l-120 3 -712 -144 c-392
-79 -713 -141 -713 -137 0 3 86 434 191 956 190 938 192 951 193 1084 1 155
-13 217 -67 296 -36 53 -115 107 -182 126 -22 6 -87 10 -145 10 -323 -2 -730
-206 -1064 -531 -196 -192 -346 -385 -463 -596 -83 -150 -122 -144 329 -54
215 43 393 77 396 75 2 -3 -223 -1136 -501 -2518 -278 -1382 -503 -2514 -502
-2516 2 -2 254 47 562 108 l558 112 263 1312 c145 721 265 1318 268 1326 3 12
101 35 396 93 216 43 402 78 413 77 30 0 65 -28 80 -64 12 -29 -7 -136 -240
-1291 -139 -693 -252 -1261 -250 -1263 4 -5 1194 238 1307 267 515 133 987
369 1406 703 163 130 430 397 558 558 176 222 310 430 434 680 193 385 306
758 367 1210 25 188 25 705 0 895 -97 724 -356 1341 -794 1890 -165 206 -429
463 -638 621 -161 121 -185 136 -189 122z"/>
<path d="M3895 9628 c112 -272 322 -774 337 -811 l21 -47 540 2 540 3 183 440
c101 241 182 440 180 442 -2 2 -206 -96 -454 -218 l-451 -222 -451 222 c-248
121 -453 221 -455 221 -2 0 2 -15 10 -32z"/>
</g>
</svg>
