<?xml version="1.0" standalone="no"?>
<!DOCTYPE svg PUBLIC "-//W3C//DTD SVG 20010904//EN"
 "http://www.w3.org/TR/2001/REC-SVG-20010904/DTD/svg10.dtd">
<svg version="1.0" xmlns="http://www.w3.org/2000/svg"
 width="225.000000pt" height="225.000000pt" viewBox="0 0 225.000000 225.000000"
 preserveAspectRatio="xMidYMid meet">

<g transform="translate(0.000000,225.000000) scale(0.100000,-0.100000)"
fill="#000000" stroke="none">
<path d="M866 2085 c4 -8 8 -15 10 -15 2 0 4 7 4 15 0 8 -4 15 -10 15 -5 0 -7
-7 -4 -15z"/>
<path d="M1251 2081 c-1 -22 -2 -23 -25 -7 -18 11 -26 12 -29 3 -3 -9 -8 -9
-20 2 -15 12 -17 11 -17 -8 0 -22 -63 -69 -86 -63 -7 1 -18 -20 -25 -48 -7
-27 -17 -50 -21 -50 -5 0 -7 4 -4 8 2 4 -4 26 -14 48 -19 44 -47 63 -56 39
-10 -26 -33 -16 -52 22 l-19 36 -7 -36 c-4 -21 -15 -41 -27 -47 -16 -9 -19
-18 -14 -54 4 -34 1 -47 -14 -60 -16 -15 -19 -15 -31 -1 -7 8 -17 15 -22 15
-5 0 -21 14 -35 30 -25 30 -73 42 -73 19 0 -7 -11 -22 -26 -35 l-25 -24 27
-36 c23 -29 25 -37 13 -45 -8 -5 -20 -9 -26 -9 -7 0 -13 -4 -13 -10 0 -5 -5
-10 -11 -10 -16 0 -79 -51 -79 -65 0 -6 -8 -19 -19 -29 -15 -14 -20 -14 -30
-2 -21 25 -51 27 -60 3 -5 -12 -23 -34 -40 -50 -17 -15 -31 -36 -31 -47 0 -12
-7 -23 -15 -26 -25 -10 -17 -37 17 -66 l33 -27 -60 5 -60 4 47 -21 c27 -12 48
-26 48 -31 0 -23 -23 -48 -43 -48 -17 0 -19 -2 -7 -10 27 -17 4 -20 -46 -5
-64 18 -191 29 -154 13 31 -14 137 -61 170 -76 14 -6 20 -11 13 -11 -7 -1 -10
-8 -7 -16 4 -10 0 -15 -16 -15 -14 0 -21 -6 -19 -17 5 -52 -1 -73 -21 -73 -11
0 -20 -4 -20 -10 0 -5 7 -10 16 -10 12 0 15 -10 12 -52 -3 -48 -1 -52 22 -58
24 -6 24 -6 -8 -19 -34 -14 -43 -44 -17 -59 9 -4 13 -15 10 -23 -7 -17 -69
-59 -89 -59 -8 0 -17 -3 -19 -7 -3 -5 20 -8 51 -7 67 1 85 -4 78 -22 -5 -13 6
-19 27 -15 64 11 83 9 114 -10 l34 -21 -22 -24 c-18 -20 -19 -24 -6 -24 9 0
19 5 22 10 3 6 13 10 22 10 12 0 14 -7 10 -29 -5 -21 0 -37 15 -56 l21 -27
-45 -46 c-25 -26 -44 -52 -42 -57 2 -6 -16 -32 -41 -59 -25 -27 -45 -55 -45
-62 0 -7 -4 -16 -10 -19 -5 -3 -15 -16 -21 -28 -12 -21 -12 -21 15 -3 15 9 36
19 47 21 10 2 42 23 70 47 35 29 53 38 58 30 5 -8 21 3 51 33 50 51 59 53 85
25 16 -17 16 -22 3 -42 -8 -13 -17 -33 -20 -45 -5 -20 -3 -21 20 -12 14 6 32
19 39 29 16 22 38 27 30 8 -3 -7 -13 -31 -22 -53 l-17 -40 29 27 c22 21 32 25
41 16 8 -8 6 -18 -9 -40 -16 -21 -19 -38 -15 -62 6 -32 7 -33 40 -22 23 7 39
21 50 43 11 23 20 31 31 27 10 -4 13 -13 10 -25 -7 -21 9 -26 21 -7 5 8 10 6
19 -5 8 -11 33 -17 88 -21 41 -2 85 -10 97 -16 11 -6 29 -8 39 -5 13 4 21 -1
26 -17 7 -22 7 -22 13 -3 4 14 12 0 28 -50 l22 -70 1 48 c1 26 6 47 11 47 6 0
10 -4 10 -10 0 -15 37 -12 54 5 15 15 27 7 32 -20 1 -5 6 -21 12 -35 8 -21 11
-13 17 49 4 40 11 68 15 61 12 -20 25 18 28 88 2 38 19 42 32 7 12 -31 37 -42
59 -27 9 7 26 16 39 22 24 10 28 30 12 61 -18 32 1 22 47 -26 23 -25 47 -45
51 -45 5 0 7 17 5 39 -3 32 0 41 23 55 25 17 27 17 48 -3 12 -12 28 -21 35
-21 6 0 37 -19 68 -42 55 -40 56 -40 35 -11 -12 17 -22 36 -22 42 0 7 -7 23
-16 37 -9 13 -14 27 -11 31 4 3 -2 17 -13 30 -19 24 -19 25 0 45 14 15 27 19
55 15 35 -5 36 -4 30 21 -3 15 -23 44 -43 65 -20 20 -32 37 -26 37 5 0 15 -5
22 -12 16 -16 70 37 108 105 24 44 29 67 32 146 3 56 1 91 -5 88 -5 -3 -15 -2
-22 3 -9 5 0 10 28 15 22 4 41 11 41 15 0 5 11 10 25 12 24 3 37 23 15 23 -5
0 -10 3 -10 8 0 4 0 12 0 17 0 6 13 10 28 10 15 0 43 11 60 24 l32 23 -26 18
c-14 9 -42 18 -61 20 -48 3 -64 21 -30 34 45 17 30 27 -45 29 -40 1 -76 6 -82
12 -7 7 -7 10 0 10 6 0 29 17 52 38 l42 37 -25 50 c-14 27 -29 51 -34 55 -4 3
-12 23 -17 44 -5 21 -16 42 -24 46 -8 4 -28 14 -43 21 l-29 13 36 29 c19 15
47 52 61 82 15 30 38 61 51 70 13 8 24 20 24 25 0 5 -21 -5 -47 -23 -26 -17
-59 -33 -72 -35 -20 -3 -49 -20 -126 -76 -8 -6 -20 -2 -35 12 l-22 20 28 36
c16 20 32 36 37 36 4 0 7 6 7 13 1 11 22 37 103 127 13 14 31 39 41 55 17 29
16 28 -16 -5 -18 -20 -75 -84 -127 -143 -86 -99 -118 -127 -105 -93 3 8 -7 18
-25 26 -36 14 -36 18 -16 67 16 38 16 39 -27 64 -10 5 -18 19 -18 31 0 16 -3
18 -14 9 -11 -10 -23 -8 -53 7 l-39 20 -18 -45 c-17 -41 -21 -44 -47 -39 -16
3 -29 1 -31 -6 -3 -7 -10 -8 -17 -4 -9 6 -11 23 -7 60 8 57 1 86 -19 86 -18 0
-36 25 -45 63 -6 25 -8 27 -9 8z m129 -262 c151 -54 264 -140 354 -268 84
-119 136 -284 136 -433 0 -70 -24 -213 -38 -232 -5 -6 -12 -26 -15 -44 -11
-57 -104 -188 -191 -268 -142 -132 -306 -194 -511 -194 -202 0 -373 74 -520
224 -196 201 -256 461 -174 754 12 42 29 87 39 101 9 14 31 49 49 77 47 76
176 192 263 236 40 21 111 49 158 63 75 22 101 24 220 22 125 -3 142 -6 230
-38z m-1100 -869 c0 -5 -4 -10 -10 -10 -5 0 -10 5 -10 10 0 6 5 10 10 10 6 0
10 -4 10 -10z"/>
<path d="M989 1764 c-506 -108 -694 -740 -329 -1104 197 -198 503 -251 751
-130 319 154 457 518 322 844 -121 292 -435 457 -744 390z m11 -174 c6 0 37
14 70 30 33 17 60 26 60 20 0 -6 -11 -33 -25 -60 -17 -34 -32 -50 -44 -50 -11
0 -21 5 -23 11 -3 9 -10 8 -25 -2 -17 -10 -24 -10 -36 -1 -12 10 -16 9 -21 -3
-16 -42 -52 5 -71 93 l-7 33 56 -36 c30 -19 60 -35 66 -35z m491 -107 c95 -99
131 -184 132 -313 1 -71 -3 -94 -25 -140 -57 -121 -182 -204 -408 -268 -164
-46 -173 -48 -166 -25 3 10 22 95 41 188 20 94 38 178 41 188 7 22 -4 22 -69
-5 l-53 -21 -43 -171 c-24 -94 -47 -180 -51 -191 -6 -16 -22 -22 -86 -31 -44
-6 -80 -11 -81 -10 -2 1 26 129 77 351 53 232 70 307 70 323 0 8 -16 12 -45
12 -25 0 -45 4 -45 9 0 30 166 131 216 131 65 0 73 -58 31 -230 -15 -57 -25
-105 -23 -107 1 -2 51 15 110 37 115 43 163 50 173 24 6 -16 -10 -113 -51
-307 -22 -105 -22 -107 -3 -101 89 28 164 91 203 169 22 47 26 65 22 123 -4
71 -41 163 -80 198 -10 10 -18 23 -18 30 0 18 71 184 79 184 4 0 27 -21 52
-47z"/>
<path d="M946 1434 c-9 -24 -8 -26 14 -14 11 6 20 15 20 20 0 16 -27 11 -34
-6z"/>
<path d="M895 1429 c-4 -6 -5 -13 -2 -16 7 -7 27 6 27 18 0 12 -17 12 -25 -2z"/>
</g>
</svg>
