<?xml version="1.0" standalone="no"?>
<!DOCTYPE svg PUBLIC "-//W3C//DTD SVG 20010904//EN"
 "http://www.w3.org/TR/2001/REC-SVG-20010904/DTD/svg10.dtd">
<svg version="1.0" xmlns="http://www.w3.org/2000/svg"
 width="200.000000pt" height="200.000000pt" viewBox="0 0 200.000000 200.000000"
 preserveAspectRatio="xMidYMid meet">

<g transform="translate(0.000000,200.000000) scale(0.100000,-0.100000)"
fill="#000000" stroke="none">
<path d="M855 1780 c-95 -15 -206 -57 -291 -109 -448 -278 -517 -897 -139
-1260 94 -90 174 -141 285 -181 102 -38 148 -44 300 -43 111 0 135 4 220 31
335 110 560 418 560 767 0 371 -243 682 -610 781 -68 19 -245 26 -325 14z
m-28 -224 c14 -5 39 2 70 17 26 14 65 32 85 40 l38 16 -40 -80 c-34 -67 -44
-79 -65 -79 -25 0 -33 14 -15 25 6 3 10 10 10 15 0 4 -17 -1 -38 -13 l-39 -21
-30 22 -30 21 1 -29 c1 -22 6 -30 19 -30 10 0 51 -11 91 -24 l73 -25 69 24
c229 79 470 73 577 -16 59 -49 80 -100 79 -191 -1 -43 3 -80 9 -83 5 -4 19
-25 31 -48 42 -83 20 -190 -56 -271 -20 -21 -33 -42 -30 -47 12 -20 4 -128
-12 -168 -21 -52 -77 -101 -146 -126 -70 -26 -253 -27 -346 -2 -63 17 -64 17
-150 -8 -47 -14 -90 -25 -95 -25 -5 0 -7 16 -5 35 2 19 0 35 -4 35 -12 0 -9
-75 3 -87 23 -23 -16 -8 -63 25 -61 42 -102 43 -116 3 -10 -28 -13 -29 -99
-36 -94 -7 -109 -7 -107 3 18 80 18 75 -12 69 -16 -4 -23 -4 -16 0 9 3 0 12
-25 23 -95 43 -146 117 -147 216 -1 48 -6 69 -27 100 -59 89 -63 171 -12 253
21 33 27 53 22 66 -15 38 -9 139 10 180 33 72 106 124 197 140 21 4 45 14 51
23 15 19 76 25 69 6 -3 -8 11 -14 47 -19 29 -3 60 -9 69 -11 15 -5 14 3 -7 67
-14 40 -25 76 -25 80 0 5 26 -7 58 -25 31 -18 67 -37 79 -40z m343 -1126 c0
-5 -2 -10 -4 -10 -3 0 -8 5 -11 10 -3 6 -1 10 4 10 6 0 11 -4 11 -10z m-184
-58 c-5 -4 -86 36 -86 43 0 3 20 -5 45 -17 24 -12 43 -23 41 -26z m54 -22 c0
-5 -2 -10 -4 -10 -3 0 -8 5 -11 10 -3 6 -1 10 4 10 6 0 11 -4 11 -10z"/>
<path d="M1185 1461 c-44 -10 -108 -26 -142 -36 -54 -17 -59 -21 -44 -31 10
-7 35 -13 57 -12 51 0 131 -10 219 -28 39 -8 70 -14 70 -14 1 0 12 29 25 65
13 36 28 65 32 65 18 0 125 -120 152 -170 16 -30 44 -68 63 -84 19 -15 32 -31
29 -34 -3 -3 -16 3 -28 14 -18 16 -21 17 -15 2 3 -9 11 -36 18 -60 11 -41 12
-42 21 -18 23 59 30 150 15 195 -46 136 -241 197 -472 146z"/>
<path d="M602 1450 c-15 -24 -31 -25 -70 -3 -28 16 -33 16 -85 0 -61 -19 -122
-71 -143 -123 -14 -34 -19 -129 -8 -158 5 -12 15 -8 52 24 44 36 140 88 222
120 19 8 53 28 75 45 22 18 67 45 100 61 l60 29 -65 12 c-95 18 -123 16 -138
-7z"/>
<path d="M905 1400 c4 -6 11 -8 16 -5 14 9 11 15 -7 15 -8 0 -12 -5 -9 -10z"/>
<path d="M777 1384 c-11 -11 -8 -54 4 -54 20 0 49 21 49 35 0 8 -4 15 -9 15
-5 0 -16 2 -23 5 -8 3 -17 2 -21 -1z"/>
<path d="M943 1383 c9 -2 23 -2 30 0 6 3 -1 5 -18 5 -16 0 -22 -2 -12 -5z"/>
<path d="M723 1368 c-27 -13 -30 -36 -7 -45 18 -7 29 3 39 35 7 24 1 26 -32
10z"/>
<path d="M929 1363 c-12 -3 -26 -46 -53 -166 -41 -185 -43 -195 -21 -177 8 7
15 19 15 26 0 20 40 133 59 169 9 17 24 50 33 75 l17 45 -6 -42 c-5 -38 -3
-43 14 -43 12 0 27 15 41 43 13 23 20 34 17 24 -17 -59 -17 -64 4 -70 28 -7
37 11 15 29 -18 14 -17 14 4 4 20 -10 26 -8 37 7 12 16 13 15 8 -8 -4 -20 1
-28 20 -36 20 -10 28 -9 38 3 6 8 14 12 17 9 3 -2 -1 -11 -8 -20 -7 -9 -11
-16 -9 -18 2 -1 16 -13 31 -25 23 -21 29 -22 50 -11 22 11 22 11 6 -7 -16 -19
-16 -21 8 -52 20 -25 31 -31 48 -27 19 5 19 5 3 -5 -9 -6 -15 -15 -13 -19 3
-4 -12 -5 -31 -3 -34 4 -35 5 -14 16 21 12 21 12 -10 41 -30 29 -31 29 -24 6
5 -16 4 -21 -4 -17 -7 5 -9 -2 -5 -21 3 -16 -15 -118 -41 -237 -25 -114 -44
-211 -41 -213 2 -3 24 7 47 21 34 20 40 26 26 32 -9 3 -17 11 -17 17 0 5 9 2
19 -7 19 -17 22 -16 93 33 142 98 133 86 133 193 0 121 -20 174 -86 229 -28
24 -53 37 -60 33 -7 -4 -9 -3 -5 4 8 13 -73 70 -184 130 -72 38 -118 48 -171
35z m391 -366 c-43 -11 -45 -14 -40 -42 3 -20 13 -31 30 -36 25 -7 25 -7 -3
-8 -25 -1 -27 -4 -21 -23 6 -20 5 -21 -10 -9 -14 12 -16 11 -16 -6 0 -12 13
-26 33 -36 l32 -16 -34 5 c-19 3 -38 7 -42 9 -4 3 -10 -3 -14 -13 -6 -14 -9
-12 -16 12 -5 18 -4 37 2 48 6 11 8 26 5 33 -3 8 -1 17 4 20 6 4 10 19 10 34
0 38 5 41 69 40 l56 -1 -45 -11z m-70 -222 c53 -34 51 -40 -5 -13 -25 12 -45
26 -45 30 0 12 7 10 50 -17z"/>
<path d="M1070 1365 c0 -3 15 -12 33 -21 50 -25 199 -124 230 -152 15 -14 27
-21 27 -15 0 6 -7 16 -16 23 -30 25 -36 49 -22 86 10 28 10 37 0 43 -18 11
-252 44 -252 36z"/>
<path d="M502 1265 c-85 -39 -162 -94 -155 -111 4 -10 0 -12 -11 -8 -29 11
-29 -24 -1 -82 28 -58 45 -67 27 -14 -6 17 -7 28 -2 25 10 -6 25 -65 21 -80
-1 -5 9 1 23 15 16 14 24 30 21 39 -3 9 -3 12 1 8 4 -4 15 0 25 9 13 12 17 25
13 48 -5 30 -5 30 8 8 l14 -22 27 28 28 29 -23 12 c-18 9 -18 10 -3 6 34 -11
40 -10 38 2 -2 7 3 10 11 7 29 -11 25 17 -6 46 -18 17 -25 27 -15 24 9 -3 17
-9 17 -13 0 -3 9 -12 21 -19 18 -12 26 -10 60 14 21 15 39 31 39 35 0 5 -22 9
-49 9 -27 0 -55 2 -63 5 -7 3 -37 -6 -66 -20z m-37 -65 c3 -5 2 -10 -4 -10 -5
0 -13 5 -16 10 -3 6 -2 10 4 10 5 0 13 -4 16 -10z"/>
<path d="M1096 1241 c-3 -4 6 -13 19 -19 14 -7 25 -8 25 -4 0 12 -39 32 -44
23z"/>
<path d="M642 1214 c-12 -8 -19 -20 -15 -27 4 -7 9 -4 14 9 6 16 8 14 9 -11
l2 -30 9 34 c12 41 9 45 -19 25z"/>
<path d="M586 1171 c-17 -18 -17 -20 3 -30 29 -16 41 -14 41 8 0 32 -24 44
-44 22z"/>
<path d="M532 1128 c-17 -17 -15 -28 6 -28 11 0 18 7 18 20 0 23 -7 25 -24 8z"/>
<path d="M1656 1117 c-3 -13 -1 -38 4 -55 7 -25 6 -32 -6 -32 -7 0 -15 -10
-18 -22 -2 -13 -9 -51 -15 -85 -12 -65 -6 -116 12 -110 19 6 76 98 88 140 13
48 1 120 -27 162 -20 31 -30 32 -38 2z"/>
<path d="M570 1115 c0 -20 17 -28 23 -11 3 8 -1 17 -9 20 -8 3 -14 -1 -14 -9z"/>
<path d="M271 1076 c-34 -54 -38 -122 -11 -184 35 -81 42 -81 78 3 l32 74 -39
71 -38 71 -22 -35z"/>
<path d="M492 1088 c-15 -15 -3 -38 20 -38 11 0 25 6 33 13 11 11 8 15 -15 24
-19 7 -32 7 -38 1z"/>
<path d="M434 1015 c-20 -25 -34 -48 -31 -51 3 -4 27 -3 52 0 49 8 52 26 4 26
-18 0 -28 4 -24 10 3 6 17 10 31 10 24 0 32 14 14 25 -6 4 -8 11 -5 16 16 25
-8 4 -41 -36z"/>
<path d="M505 1020 c3 -5 8 -10 11 -10 2 0 4 5 4 10 0 6 -5 10 -11 10 -5 0 -7
-4 -4 -10z"/>
<path d="M874 950 l-60 -28 -28 -124 c-16 -68 -31 -128 -33 -134 -4 -10 25
-29 33 -22 1 2 12 55 25 118 25 131 36 148 115 182 29 13 54 26 54 31 0 15
-46 5 -106 -23z"/>
<path d="M372 926 c-15 -33 -15 -34 1 -39 6 -2 5 -3 -4 -2 -19 3 -39 -34 -39
-70 0 -26 42 -65 69 -65 20 1 55 29 64 53 6 17 3 18 -45 13 -29 -3 -44 -2 -33
1 61 17 65 21 53 48 -6 14 -18 25 -27 25 -12 0 -13 2 -3 9 10 6 9 13 -5 30
l-19 23 -12 -26z"/>
<path d="M431 924 c22 -23 24 -24 36 -8 20 28 16 34 -24 34 l-36 0 24 -26z"/>
<path d="M1590 832 c0 -5 -11 -26 -25 -46 -28 -41 -25 -44 16 -15 29 20 38 52
19 64 -5 3 -10 2 -10 -3z"/>
<path d="M1330 740 c-36 -28 -94 -66 -130 -85 l-65 -35 45 6 c79 10 107 24
153 73 37 40 75 92 65 91 -2 -1 -32 -23 -68 -50z"/>
<path d="M315 761 c-3 -11 1 -46 9 -78 12 -46 24 -66 58 -96 37 -34 96 -67
118 -67 16 0 45 126 31 134 -4 3 -33 -1 -65 -8 -34 -8 -54 -10 -48 -4 7 7 6
15 -4 25 -8 8 -14 22 -14 31 0 9 -18 32 -40 49 -36 31 -39 32 -45 14z m69
-157 c5 -14 4 -15 -9 -4 -17 14 -19 20 -6 20 5 0 12 -7 15 -16z"/>
<path d="M1565 745 c-27 -16 -79 -51 -115 -76 -81 -58 -141 -88 -255 -128 -49
-18 -91 -33 -93 -35 -8 -9 138 -27 216 -27 141 0 236 41 281 121 24 44 37 124
24 155 -8 20 -9 20 -58 -10z"/>
<path d="M745 630 c-3 -5 1 -10 10 -10 9 0 13 5 10 10 -3 6 -8 10 -10 10 -2 0
-7 -4 -10 -10z"/>
<path d="M1208 614 c-3 -3 -23 -7 -43 -9 -21 -2 -41 -9 -46 -17 -14 -22 8 -21
63 5 29 14 48 26 42 26 -6 1 -13 -2 -16 -5z"/>
<path d="M731 573 c-16 -57 -14 -66 12 -59 12 3 29 6 37 6 12 0 13 2 1 9 -9 6
-12 20 -9 40 3 20 0 32 -10 36 -21 8 -20 8 -31 -32z"/>
<path d="M835 500 c4 -7 -3 -8 -22 -4 l-28 7 27 -22 c34 -27 38 -26 38 4 0 14
-5 25 -11 25 -5 0 -7 -5 -4 -10z"/>
</g>
</svg>
