<?xml version="1.0" standalone="no"?>
<!DOCTYPE svg PUBLIC "-//W3C//DTD SVG 20010904//EN"
 "http://www.w3.org/TR/2001/REC-SVG-20010904/DTD/svg10.dtd">
<svg version="1.0" xmlns="http://www.w3.org/2000/svg"
 width="1448.000000pt" height="522.000000pt" viewBox="0 0 1448.000000 522.000000"
 preserveAspectRatio="xMidYMid meet">

<g transform="translate(0.000000,522.000000) scale(0.100000,-0.100000)"
fill="#000000" stroke="none">
<path d="M1749 5207 c-237 -67 -395 -370 -589 -1132 -103 -402 -196 -836 -430
-2001 -65 -325 -126 -619 -135 -654 -38 -145 -106 -249 -189 -289 -37 -18 -61
-21 -194 -21 -149 0 -152 0 -157 -22 -2 -13 -14 -77 -25 -143 -11 -66 -23
-131 -26 -144 l-5 -24 203 5 c228 6 284 18 393 83 143 86 255 250 309 450 9
33 79 373 157 755 374 1852 542 2519 694 2745 51 76 70 78 107 10 122 -227
241 -860 448 -2400 172 -1281 248 -1782 297 -1970 82 -312 205 -449 403 -449
177 0 270 108 419 482 34 84 77 185 96 223 l35 69 4690 0 4690 0 5 22 c2 13
14 77 25 143 11 66 23 130 25 143 l5 22 -4762 -2 -4763 -3 -51 -27 c-106 -56
-179 -170 -293 -456 -70 -174 -117 -272 -131 -272 -26 0 -78 164 -115 365 -40
219 -119 761 -229 1575 -125 918 -161 1173 -222 1539 -168 1023 -311 1367
-576 1386 -36 3 -82 -1 -109 -8z"/>
<path d="M4097 3132 c-54 -262 -113 -549 -131 -637 -109 -519 -206 -996 -206
-1006 0 -6 136 -8 352 -7 l352 3 173 834 c96 459 176 837 178 840 3 2 9 0 14
-5 7 -7 72 -1497 71 -1632 l0 -42 351 2 351 3 385 830 c211 457 388 834 394
840 21 21 23 32 -156 -830 -30 -143 -79 -381 -110 -530 -30 -148 -58 -280 -60
-292 l-5 -23 372 0 373 0 218 1058 c120 581 218 1060 217 1065 0 4 -276 7
-614 7 l-613 0 -77 -172 c-41 -95 -157 -357 -255 -583 -99 -225 -185 -411
-191 -413 -5 -2 -10 11 -10 30 0 18 -9 274 -20 568 -11 294 -20 543 -20 553 0
16 -36 17 -617 17 l-618 0 -98 -478z"/>
<path d="M7565 3598 c-2 -7 -20 -87 -39 -178 -19 -91 -62 -289 -95 -440 -32
-151 -91 -423 -131 -605 -39 -181 -98 -453 -131 -603 -32 -150 -59 -277 -59
-282 0 -6 160 -10 434 -10 l434 0 5 23 c4 12 105 481 227 1042 122 561 224
1030 227 1043 l5 22 -436 0 c-340 0 -438 -3 -441 -12z"/>
<path d="M8755 3598 c-2 -7 -29 -132 -59 -278 -50 -242 -94 -449 -162 -775
-14 -66 -29 -140 -34 -165 -5 -25 -27 -133 -50 -240 -23 -107 -63 -300 -89
-427 l-49 -233 419 0 418 0 9 33 c5 17 33 152 63 299 l54 268 250 0 c138 0
304 5 370 10 423 35 740 233 886 555 37 81 69 213 69 283 l0 52 365 0 c292 0
365 -3 365 -13 0 -14 1 -10 -179 -891 -67 -324 -121 -591 -121 -593 0 -1 184
-3 409 -3 381 0 410 1 415 18 3 9 71 339 151 732 80 393 148 723 151 733 5 16
31 17 368 17 l363 0 62 303 c33 166 61 308 61 315 0 9 -234 12 -1137 12
l-1138 0 -59 -293 c-60 -299 -75 -355 -76 -282 0 23 -7 67 -15 100 -56 213
-232 380 -472 448 -77 21 -91 22 -841 25 -616 2 -763 0 -767 -10z m1170 -553
c33 -17 72 -47 89 -68 26 -32 31 -49 34 -105 8 -143 -79 -249 -251 -304 -49
-16 -99 -22 -241 -26 l-179 -5 6 24 c12 46 107 503 107 512 0 5 81 7 188 5
185 -3 188 -3 247 -33z"/>
<path d="M13256 1183 c-12 -42 -118 -635 -114 -639 3 -2 117 20 254 50 280 61
856 185 982 212 46 10 77 21 70 24 -14 8 -1172 370 -1181 370 -3 0 -8 -8 -11
-17z"/>
</g>
</svg>
