<?xml version="1.0" standalone="no"?>
<!DOCTYPE svg PUBLIC "-//W3C//DTD SVG 20010904//EN"
 "http://www.w3.org/TR/2001/REC-SVG-20010904/DTD/svg10.dtd">
<svg version="1.0" xmlns="http://www.w3.org/2000/svg"
 width="199.000000pt" height="200.000000pt" viewBox="0 0 199.000000 200.000000"
 preserveAspectRatio="xMidYMid meet">

<g transform="translate(0.000000,200.000000) scale(0.100000,-0.100000)"
fill="#000000" stroke="none">
<path d="M90 1643 l0 -268 38 70 c21 39 44 70 50 70 6 0 33 -21 60 -47 l49
-48 28 43 c40 59 140 162 205 210 30 22 57 42 59 44 3 2 -20 25 -49 51 -34 31
-51 53 -46 60 4 7 38 28 74 47 l67 34 -267 1 -268 0 0 -267z"/>
<path d="M1485 1879 c92 -48 91 -46 35 -108 -28 -30 -50 -56 -50 -57 0 -1 24
-18 53 -37 58 -39 171 -154 212 -216 l27 -39 51 49 c28 27 54 49 59 49 4 0 25
-33 48 -72 l40 -73 0 268 0 267 -267 0 -268 0 60 -31z"/>
<path d="M855 1892 c-26 -6 -30 -12 -33 -43 l-3 -35 73 12 c92 17 173 17 266
0 l72 -12 0 32 c0 21 -6 35 -17 40 -23 10 -319 15 -358 6z"/>
<path d="M873 1778 l-53 -10 -1 -86 c0 -48 -2 -95 -4 -104 -4 -21 -6 -21 70
-3 94 23 231 18 328 -11 15 -5 17 4 17 99 l0 105 -63 11 c-75 13 -221 13 -294
-1z"/>
<path d="M560 1647 c-60 -41 -190 -175 -217 -224 l-22 -40 73 -71 72 -72 52
80 c28 44 58 80 67 80 8 0 15 5 15 11 0 14 31 41 102 88 l58 39 -72 71 c-39
39 -74 71 -77 70 -3 0 -26 -15 -51 -32z"/>
<path d="M1359 1610 l-70 -71 75 -50 c81 -54 129 -104 179 -186 18 -29 36 -53
40 -53 14 0 137 127 137 141 0 18 -89 136 -131 174 -45 40 -144 115 -153 115
-4 0 -38 -32 -77 -70z"/>
<path d="M110 1118 c-12 -72 -9 -279 6 -325 5 -18 14 -23 40 -23 l34 0 -7 43
c-5 23 -8 98 -8 167 0 69 3 144 8 168 l7 42 -34 0 -34 0 -12 -72z"/>
<path d="M231 1152 c-19 -67 -24 -205 -12 -278 19 -113 8 -104 127 -104 97 0
104 1 96 18 -34 63 -38 255 -8 355 l14 47 -104 0 -103 0 -10 -38z"/>
<path d="M1618 1138 c21 -71 20 -257 -1 -320 l-15 -48 104 0 103 0 12 43 c16
54 16 279 0 335 l-12 42 -103 0 -103 0 15 -52z"/>
<path d="M1867 1153 c10 -49 10 -297 0 -345 l-8 -38 35 0 c32 0 36 3 43 38 10
48 10 274 0 335 -8 46 -9 47 -43 47 l-35 0 8 -37z"/>
<path d="M393 641 l-72 -74 29 -42 c49 -71 129 -154 195 -201 35 -24 66 -44
70 -44 9 0 149 140 144 144 -2 1 -25 14 -50 29 -71 40 -148 115 -198 192 l-46
70 -72 -74z"/>
<path d="M1570 699 c0 -21 -88 -136 -138 -181 -28 -24 -70 -55 -96 -68 -25
-14 -46 -27 -46 -30 0 -3 32 -36 70 -74 l70 -68 45 27 c42 24 160 133 195 180
35 46 50 70 50 80 0 14 -128 145 -141 145 -5 0 -9 -5 -9 -11z"/>
<path d="M90 318 l0 -268 268 0 267 0 -70 36 c-38 20 -72 38 -74 40 -2 2 20
29 48 59 l53 56 -48 34 c-66 47 -166 147 -206 206 -18 27 -36 49 -40 49 -4 0
-30 -23 -58 -51 -28 -28 -54 -49 -56 -46 -3 3 -23 38 -45 79 l-38 73 -1 -267z"/>
<path d="M1929 528 c-13 -28 -32 -62 -43 -75 l-19 -24 -52 55 -53 56 -31 -48
c-34 -53 -165 -184 -223 -222 -21 -14 -38 -27 -38 -30 0 -3 23 -27 50 -54 28
-27 50 -52 50 -56 0 -4 -32 -23 -71 -43 l-71 -37 266 0 266 0 0 265 c0 146 -1
265 -3 265 -2 0 -14 -23 -28 -52z"/>
<path d="M820 296 l0 -104 69 -13 c69 -12 270 -8 319 7 21 6 22 11 22 109 l0
103 -52 -14 c-71 -18 -241 -18 -304 1 -27 8 -50 15 -51 15 -2 0 -3 -47 -3
-104z"/>
<path d="M822 108 c3 -28 8 -33 38 -40 46 -11 285 -11 330 -1 30 8 35 13 38
41 l3 32 -63 -8 c-83 -9 -207 -9 -286 1 l-63 8 3 -33z"/>
</g>
</svg>
