<?xml version="1.0" standalone="no"?>
<!DOCTYPE svg PUBLIC "-//W3C//DTD SVG 20010904//EN"
 "http://www.w3.org/TR/2001/REC-SVG-20010904/DTD/svg10.dtd">
<svg version="1.0" xmlns="http://www.w3.org/2000/svg"
 width="2500.000000pt" height="715.000000pt" viewBox="0 0 2500.000000 715.000000"
 preserveAspectRatio="xMidYMid meet">

<g transform="translate(0.000000,715.000000) scale(0.100000,-0.100000)"
fill="#000000" stroke="none">
<path d="M6460 4325 l0 -2485 400 0 400 0 2 1767 3 1767 1274 -1767 1275
-1767 338 0 338 0 0 2485 0 2485 -395 0 -395 0 0 -1715 c0 -943 -3 -1715 -7
-1714 -5 0 -564 772 -1243 1715 l-1234 1714 -378 0 -378 0 0 -2485z"/>
<path d="M11430 4325 l0 -2485 420 0 420 0 0 2090 0 2091 728 -4 c712 -3 729
-4 827 -26 173 -39 319 -109 433 -207 97 -82 185 -245 216 -396 21 -100 21
-286 0 -386 -65 -318 -297 -536 -663 -624 -79 -19 -126 -22 -544 -27 l-458 -6
848 -1252 848 -1253 494 0 493 0 -18 28 c-9 15 -298 436 -641 935 -343 499
-623 911 -623 915 0 4 39 20 86 37 199 67 429 199 568 325 240 218 375 455
448 790 20 94 23 131 23 365 0 232 -3 271 -23 362 -46 209 -119 386 -227 548
-196 295 -544 515 -967 611 -233 53 -270 54 -1525 54 l-1163 0 0 -2485z"/>
<path d="M16220 4325 l0 -2485 1915 0 1915 0 0 390 0 390 -1440 0 -1440 0 0
670 0 670 1160 0 1160 0 0 390 0 390 -1160 0 -1160 0 0 650 0 650 1420 0 1420
0 0 385 0 385 -1895 0 -1895 0 0 -2485z"/>
<path d="M21040 4325 l0 -2485 1785 0 1785 0 0 395 0 395 -1315 0 -1315 0 0
2090 0 2090 -470 0 -470 0 0 -2485z"/>
<path d="M370 6079 l0 -722 66 134 c69 141 140 265 156 275 6 4 74 -58 153
-136 l142 -142 55 83 c166 255 438 522 682 670 l55 34 -146 147 -146 146 40
25 c76 48 218 124 303 162 47 21 87 39 89 41 2 2 -323 4 -722 4 l-727 0 0
-721z"/>
<path d="M3940 6756 c81 -38 325 -169 340 -182 2 -3 -61 -70 -140 -149 -89
-89 -141 -148 -135 -153 6 -5 51 -37 102 -71 235 -156 465 -389 622 -629 l54
-83 144 143 144 143 25 -30 c13 -16 65 -110 114 -208 l90 -179 0 721 0 721
-727 0 -728 0 95 -44z"/>
<path d="M2635 6774 c-81 -9 -324 -44 -339 -50 -13 -5 -16 -24 -16 -100 0 -52
4 -94 9 -94 5 0 51 9 102 19 170 35 291 44 513 38 195 -5 288 -16 454 -52 l32
-7 0 95 c0 112 18 99 -171 128 -129 20 -482 33 -584 23z"/>
<path d="M2590 6469 c-87 -10 -219 -34 -272 -49 l-38 -11 0 -281 c0 -263 1
-280 18 -273 52 20 189 55 277 70 207 37 490 21 700 -40 44 -13 88 -27 98 -30
16 -7 17 10 17 274 l0 280 -42 12 c-128 35 -260 50 -468 54 -118 2 -249 0
-290 -6z"/>
<path d="M1646 6125 c-249 -166 -450 -369 -614 -619 l-65 -98 199 -199 198
-198 38 71 c158 290 381 516 658 665 47 26 87 48 90 50 7 6 -383 393 -396 393
-6 0 -55 -29 -108 -65z"/>
<path d="M3710 5995 c-107 -107 -192 -196 -190 -198 3 -3 32 -18 66 -35 33
-17 101 -57 150 -90 220 -148 384 -328 522 -575 l48 -86 199 199 198 198 -66
99 c-94 141 -178 242 -308 369 -138 134 -376 314 -416 314 -4 0 -96 -88 -203
-195z"/>
<path d="M426 4800 c-31 -174 -40 -280 -40 -480 1 -199 8 -280 40 -462 l16
-88 98 0 98 0 -19 86 c-62 278 -64 621 -5 913 l22 110 -97 3 -97 3 -16 -85z"/>
<path d="M736 4815 c-41 -177 -50 -268 -50 -490 0 -222 8 -298 50 -482 l16
-73 280 0 c262 0 280 1 275 18 -2 9 -16 55 -30 102 -46 157 -60 284 -54 490 6
188 15 253 62 414 13 44 22 82 21 83 -1 1 -126 3 -278 5 l-276 3 -16 -70z"/>
<path d="M4626 4883 c-221 -3 -267 -6 -263 -17 66 -172 102 -447 87 -657 -12
-149 -28 -230 -87 -421 -5 -17 13 -18 275 -18 l280 0 16 68 c40 175 49 267 50
477 0 117 -5 246 -12 290 -22 148 -54 285 -66 283 -6 -2 -132 -4 -280 -5z"/>
<path d="M5123 4883 l-91 -4 9 -32 c52 -176 74 -555 45 -782 -9 -71 -25 -167
-35 -212 l-18 -83 97 0 97 0 16 83 c9 45 22 125 29 177 15 120 15 478 -1 590
-20 144 -44 270 -50 268 -3 -1 -47 -4 -98 -5z"/>
<path d="M1166 3451 c-190 -190 -198 -199 -186 -222 7 -13 39 -63 72 -111 157
-235 378 -450 625 -608 l78 -50 198 198 c137 137 194 199 185 205 -7 4 -53 30
-103 58 -255 144 -488 382 -623 637 l-48 91 -198 -198z"/>
<path d="M4256 3556 c-127 -247 -367 -492 -621 -635 -49 -28 -96 -54 -103 -58
-9 -6 48 -68 186 -206 l198 -198 104 70 c255 168 502 422 649 666 l34 57 -199
199 -199 199 -49 -94z"/>
<path d="M371 2578 l-1 -718 723 0 722 0 -95 44 c-52 24 -111 52 -130 63 -146
83 -200 116 -200 121 0 4 64 71 142 149 78 78 140 144 138 146 -3 2 -43 29
-90 59 -244 160 -456 371 -623 621 l-71 107 -147 -146 -147 -147 -57 98 c-32
53 -81 147 -111 208 l-53 112 0 -717z"/>
<path d="M5247 3187 c-26 -56 -75 -149 -108 -206 l-61 -104 -147 146 -146 147
-71 -108 c-153 -230 -369 -448 -600 -604 -44 -30 -89 -60 -100 -66 -17 -10 -6
-24 124 -154 78 -79 142 -146 142 -149 0 -14 -331 -193 -410 -222 -8 -3 310
-6 708 -6 l722 -1 0 715 c0 393 -1 715 -2 715 -2 0 -24 -46 -51 -103z"/>
<path d="M2280 2523 l0 -280 78 -16 c180 -39 287 -50 477 -50 195 -1 275 7
453 44 l102 22 0 279 0 280 -22 -6 c-230 -66 -357 -86 -543 -86 -168 0 -314
24 -527 87 -17 5 -18 -13 -18 -274z"/>
<path d="M2282 2034 l3 -99 60 -12 c293 -59 641 -61 953 -6 l92 16 0 100 c0
84 -2 98 -15 93 -74 -28 -381 -66 -535 -66 -151 0 -474 39 -544 66 -15 6 -16
-4 -14 -92z"/>
<path d="M3003 1115 c-99 -30 -169 -91 -221 -188 -25 -48 -27 -61 -27 -162 0
-106 1 -112 34 -173 56 -102 142 -163 257 -182 260 -42 475 193 410 450 -31
123 -122 220 -239 255 -61 18 -157 18 -214 0z m213 -99 c198 -92 205 -386 13
-491 -44 -24 -66 -29 -119 -29 -76 1 -123 18 -178 68 -55 50 -85 123 -85 209
0 196 194 325 369 243z"/>
<path d="M16003 1115 c-102 -31 -176 -96 -222 -195 -23 -48 -26 -68 -26 -155
0 -89 3 -107 29 -163 59 -127 172 -194 326 -195 91 0 172 24 245 75 l35 23 0
148 0 147 -150 0 -150 0 0 -45 0 -45 105 0 105 0 0 -81 0 -80 -57 -27 c-47
-22 -73 -27 -133 -27 -64 0 -82 4 -128 30 -93 51 -137 138 -130 258 5 85 26
136 81 188 54 53 111 73 195 67 69 -5 120 -24 160 -61 l23 -21 27 34 c15 19
27 39 27 45 0 17 -104 73 -157 84 -65 14 -153 13 -205 -4z"/>
<path d="M19858 1117 c-76 -22 -154 -80 -198 -148 -117 -181 -56 -430 128
-523 186 -94 413 -18 498 167 26 55 29 73 29 157 0 82 -4 103 -26 151 -59 126
-169 200 -307 206 -44 1 -97 -3 -124 -10z m184 -89 c50 -15 122 -78 151 -132
18 -33 22 -57 22 -132 0 -83 -2 -94 -30 -139 -58 -93 -166 -147 -262 -129
-137 25 -223 132 -223 278 0 182 168 306 342 254z"/>
<path d="M22693 1116 c-180 -59 -280 -223 -251 -411 38 -249 302 -374 531
-252 253 134 241 525 -19 644 -69 31 -196 41 -261 19z m213 -99 c53 -28 94
-68 119 -118 93 -183 -26 -401 -220 -403 -81 -1 -144 25 -194 79 -55 59 -73
106 -74 190 -1 60 3 80 28 130 32 64 80 108 141 131 49 18 157 13 200 -9z"/>
<path d="M380 770 l0 -350 45 0 45 0 2 268 3 267 213 -267 214 -268 39 0 39 0
0 350 0 350 -45 0 -45 0 0 -260 c0 -143 -3 -260 -7 -260 -5 1 -100 118 -213
260 l-205 260 -42 0 -43 0 0 -350z"/>
<path d="M1260 780 c-85 -188 -156 -345 -158 -350 -2 -6 18 -10 45 -10 l49 0
41 90 42 90 181 -2 181 -3 38 -85 37 -85 53 -3 c32 -2 52 1 50 7 -2 5 -74 163
-159 350 l-155 341 -45 0 -45 0 -155 -340z m270 64 c36 -80 67 -150 68 -155 2
-5 -55 -9 -137 -9 -78 0 -141 3 -141 8 0 13 133 302 139 302 4 0 36 -66 71
-146z"/>
<path d="M1800 1075 l0 -45 115 0 115 0 0 -305 0 -305 50 0 50 0 0 305 0 305
115 0 115 0 0 45 0 45 -280 0 -280 0 0 -45z"/>
<path d="M2500 770 l0 -350 45 0 45 0 0 350 0 350 -45 0 -45 0 0 -350z"/>
<path d="M3620 770 l0 -350 45 0 45 0 2 267 3 266 210 -266 210 -266 43 0 42
-1 0 350 0 350 -50 0 -50 0 -2 -261 -3 -261 -205 260 -205 261 -42 0 -43 1 0
-350z"/>
<path d="M4641 1093 c-72 -153 -301 -659 -301 -665 0 -4 21 -8 48 -8 l47 0 39
90 39 90 182 0 182 0 39 -90 38 -90 53 0 53 0 -15 33 c-9 17 -80 174 -159 347
l-143 315 -45 3 c-40 3 -46 0 -57 -25z m128 -254 c34 -75 61 -141 61 -148 0
-8 -40 -11 -135 -11 -91 0 -135 4 -135 11 0 10 27 73 99 233 19 41 35 66 40
60 5 -5 37 -70 70 -145z"/>
<path d="M5170 770 l0 -350 245 0 245 0 0 45 0 45 -195 0 -195 0 0 305 0 305
-50 0 -50 0 0 -350z"/>
<path d="M6080 770 l0 -350 50 0 50 0 0 305 0 305 128 0 c103 0 135 -4 169
-19 96 -44 95 -170 -2 -224 -11 -6 -55 -14 -98 -17 l-78 -5 128 -172 128 -172
58 -1 c31 0 57 3 57 6 0 3 -45 65 -101 137 l-100 132 43 18 c88 37 131 100
131 192 0 70 -17 109 -67 153 -58 51 -116 62 -318 62 l-178 0 0 -350z"/>
<path d="M6800 770 l0 -350 260 0 260 0 0 40 0 40 -215 0 -215 0 0 115 0 115
190 0 190 0 0 40 0 40 -190 0 -190 0 0 110 0 110 210 0 210 0 0 45 0 45 -255
0 -255 0 0 -350z"/>
<path d="M7460 770 l0 -350 45 0 45 0 2 267 3 268 213 -268 212 -267 40 0 40
0 0 350 0 350 -45 0 -45 0 0 -260 c0 -143 -3 -260 -8 -260 -4 0 -99 117 -212
260 l-205 259 -42 1 -43 0 0 -350z"/>
<path d="M8240 770 l0 -350 260 0 260 0 0 40 0 40 -212 2 -213 3 0 110 0 110
178 3 177 2 0 40 0 40 -177 2 -178 3 -3 108 -3 107 211 0 210 0 0 45 0 45
-255 0 -255 0 0 -350z"/>
<path d="M8874 1028 c18 -51 75 -211 127 -356 l93 -263 40 3 40 3 89 263 c50
144 92 261 94 258 2 -2 44 -120 92 -262 l89 -259 40 -3 c36 -3 41 0 50 25 16
48 234 657 239 671 4 8 -9 12 -45 12 l-51 0 -19 -52 c-10 -29 -52 -151 -93
-270 -41 -120 -76 -218 -79 -218 -3 0 -46 122 -95 270 l-90 271 -39 -3 -39 -3
-90 -269 c-55 -164 -93 -263 -97 -255 -4 8 -47 130 -96 271 l-89 258 -52 0
-53 0 34 -92z"/>
<path d="M10157 1113 c-6 -9 -271 -589 -298 -651 l-19 -43 51 3 51 3 39 85 38
85 181 3 181 2 41 -90 41 -90 49 0 c26 0 48 3 48 8 0 4 -70 161 -156 350
l-157 342 -43 0 c-23 0 -45 -3 -47 -7z m117 -270 c36 -82 66 -151 66 -155 0
-5 -63 -8 -141 -8 -84 0 -139 4 -137 9 15 42 134 301 139 301 3 0 36 -66 73
-147z"/>
<path d="M10680 770 l0 -351 213 3 c200 3 215 4 260 27 68 33 102 87 102 160
0 70 -27 117 -85 150 l-41 23 27 21 c32 25 63 91 64 134 0 67 -35 119 -105
156 -36 20 -59 22 -237 25 l-198 4 0 -352z m411 222 c39 -43 39 -90 2 -132
-35 -39 -79 -49 -210 -50 l-103 0 0 111 0 111 141 -4 141 -3 29 -33z m6 -285
c97 -52 78 -165 -33 -196 -21 -6 -94 -11 -161 -11 l-123 0 0 116 0 116 143 -4
c108 -3 150 -8 174 -21z"/>
<path d="M11390 770 l0 -350 245 0 245 0 0 45 0 45 -195 0 -195 0 0 305 0 305
-50 0 -50 0 0 -350z"/>
<path d="M12010 770 l0 -350 260 0 260 0 0 40 0 40 -215 0 -215 0 0 115 0 115
180 0 180 0 0 40 0 40 -180 0 -180 0 0 110 0 110 210 0 210 0 0 45 0 45 -255
0 -255 0 0 -350z"/>
<path d="M12960 770 l0 -350 265 0 265 0 0 40 0 40 -215 0 -215 0 0 115 0 115
175 0 175 0 0 40 0 40 -175 0 -175 0 0 110 0 110 210 0 210 0 0 45 0 45 -260
0 -260 0 0 -350z"/>
<path d="M13620 771 l0 -351 50 0 50 0 2 266 3 266 210 -266 210 -265 43 -1
42 0 0 350 0 350 -50 0 -50 0 -2 -262 -3 -262 -205 260 -205 259 -48 3 -47 3
0 -350z"/>
<path d="M14400 770 l0 -350 265 0 265 0 0 40 0 40 -215 0 -215 0 0 115 0 115
175 0 175 0 0 40 0 40 -175 0 -175 0 0 110 0 110 210 0 210 0 0 45 0 45 -260
0 -260 0 0 -350z"/>
<path d="M15070 771 l0 -351 45 0 45 0 0 305 0 305 123 0 c67 0 139 -5 159
-10 51 -15 88 -61 88 -111 0 -90 -50 -130 -172 -138 l-78 -6 131 -172 132
-173 59 0 59 0 -105 139 -105 139 45 17 c93 35 144 123 130 222 -9 70 -47 120
-114 151 -55 26 -65 27 -249 30 l-193 4 0 -351z"/>
<path d="M16450 1116 c0 -3 65 -100 145 -215 l145 -209 0 -136 0 -136 50 0 50
0 0 140 0 140 145 208 145 207 -51 3 c-28 2 -56 -1 -62 -7 -7 -5 -59 -79 -117
-165 -58 -85 -108 -154 -112 -153 -4 1 -56 74 -116 162 l-109 160 -56 3 c-32
2 -57 1 -57 -2z"/>
<path d="M17530 770 l0 -350 240 0 240 0 0 45 0 45 -195 0 -195 0 0 305 0 305
-45 0 -45 0 0 -350z"/>
<path d="M18237 776 c-86 -189 -157 -347 -157 -350 0 -3 22 -6 48 -6 l48 0 39
90 39 90 182 0 181 0 41 -90 41 -90 50 0 c28 0 51 1 51 3 0 1 -71 157 -158
347 l-157 345 -46 3 -45 3 -157 -345z m274 64 c37 -82 64 -152 61 -155 -9 -9
-272 -5 -272 4 0 5 23 60 51 122 28 63 58 129 65 147 8 17 18 32 22 32 4 0 37
-68 73 -150z"/>
<path d="M18920 771 l0 -351 193 0 c105 0 208 5 228 10 46 13 96 47 122 82 28
38 35 134 13 176 -17 32 -74 82 -94 82 -19 0 -14 18 8 30 36 20 63 87 58 150
-5 70 -32 110 -96 142 -43 21 -62 23 -239 26 l-193 4 0 -351z m375 245 c22
-10 41 -27 51 -50 15 -31 16 -39 3 -73 -24 -63 -62 -77 -211 -82 l-128 -3 0
111 0 111 125 0 c87 0 136 -4 160 -14z m38 -309 c77 -34 83 -133 9 -179 -33
-21 -51 -23 -184 -27 l-148 -3 0 117 0 117 143 -4 c102 -3 153 -9 180 -21z"/>
<path d="M20470 770 l0 -350 45 0 45 0 0 305 0 305 123 0 c143 0 183 -9 222
-50 21 -22 28 -39 29 -73 2 -87 -65 -136 -186 -137 l-66 0 131 -175 132 -175
58 0 c45 0 56 3 50 13 -4 7 -50 68 -100 135 -51 66 -93 123 -93 125 0 3 15 10
33 17 89 36 136 104 137 198 0 100 -67 179 -171 201 -27 6 -126 11 -219 11
l-170 0 0 -350z"/>
<path d="M21437 1113 c-6 -9 -271 -589 -298 -651 l-19 -43 51 3 51 3 39 85 38
85 181 3 181 2 41 -90 41 -90 49 0 c26 0 48 3 48 8 0 4 -70 161 -156 350
l-157 342 -43 0 c-23 0 -45 -3 -47 -7z m117 -269 c36 -81 66 -151 66 -155 0
-5 -63 -9 -141 -9 -84 0 -139 4 -137 9 15 44 134 301 139 301 4 0 36 -66 73
-146z"/>
<path d="M21820 1075 l0 -45 120 0 120 0 0 -305 0 -305 45 0 45 0 0 305 0 305
115 0 115 0 0 45 0 45 -280 0 -280 0 0 -45z"/>
<path d="M23300 770 l0 -350 50 0 50 0 0 305 0 305 128 0 c102 0 135 -4 168
-19 52 -23 74 -55 74 -103 0 -88 -52 -130 -172 -138 l-77 -5 130 -172 129
-173 61 0 60 0 -105 137 -105 138 47 21 c60 27 97 64 118 120 31 82 1 186 -67
231 -67 44 -118 53 -311 53 l-178 0 0 -350z"/>
<path d="M23920 1116 c0 -3 65 -100 145 -215 l145 -209 0 -136 0 -136 50 0 50
0 0 140 0 140 145 208 145 207 -51 3 c-28 2 -56 -1 -62 -7 -7 -5 -59 -79 -117
-165 -58 -85 -108 -154 -112 -153 -4 1 -56 74 -116 162 l-108 160 -57 3 c-31
2 -57 1 -57 -2z"/>
</g>
</svg>
